<svg width="5" height="5" viewBox="0 0 5 5" fill="none" xmlns="http://www.w3.org/2000/svg">
<path d="M0.57477 0.0937957C0.511756 0.0329303 0.427358 -0.000748669 0.339755 1.26312e-05C0.252152 0.000773931 0.168352 0.0359147 0.106405 0.0978661C0.0444576 0.159817 0.00931918 0.243623 0.00855793 0.331232C0.00779668 0.418841 0.0414734 0.503244 0.102335 0.566263L2.03184 2.49589L0.102001 4.42552C0.0700895 4.45635 0.0446359 4.49322 0.0271254 4.53398C0.0096149 4.57475 0.00039812 4.6186 1.26151e-05 4.66296C-0.00037289 4.70733 0.00808067 4.75133 0.0248802 4.79239C0.0416797 4.83345 0.0664886 4.87076 0.0978594 4.90213C0.12923 4.93351 0.166535 4.95832 0.207596 4.97512C0.248657 4.99192 0.292653 5.00037 0.337016 4.99999C0.381379 4.9996 0.425222 4.99038 0.465985 4.97287C0.506748 4.95536 0.543616 4.92991 0.574436 4.89799L2.50427 2.96836L4.43377 4.89799C4.49679 4.95886 4.58119 4.99254 4.66879 4.99178C4.75639 4.99101 4.84019 4.95587 4.90214 4.89392C4.96409 4.83197 4.99923 4.74817 4.99999 4.66056C5.00075 4.57295 4.96707 4.48854 4.90621 4.42552L2.97671 2.49589L4.90621 0.566263C4.96707 0.503244 5.00075 0.418841 4.99999 0.331232C4.99923 0.243623 4.96409 0.159817 4.90214 0.0978661C4.84019 0.0359147 4.75639 0.000773931 4.66879 1.26312e-05C4.58119 -0.000748669 4.49679 0.0329303 4.43377 0.0937957L2.50427 2.02343L0.57477 0.0937957Z" fill="#383838"/>
</svg>
