<svg width="14" height="9" viewBox="0 0 14 9" fill="none" xmlns="http://www.w3.org/2000/svg">
<path fill-rule="evenodd" clip-rule="evenodd" d="M-0.00088501 4.5C-0.00088501 4.36739 0.0517934 4.24022 0.145562 4.14645C0.23933 4.05268 0.366507 4 0.499115 4H12.2921L9.14511 0.854C9.05123 0.760114 8.99848 0.632776 8.99848 0.5C8.99848 0.367224 9.05123 0.239887 9.14511 0.146C9.239 0.0521135 9.36634 -0.000631329 9.49911 -0.000631332C9.63189 -0.000631336 9.75923 0.0521135 9.85312 0.146L13.8531 4.146C13.8997 4.19245 13.9366 4.24762 13.9618 4.30837C13.987 4.36911 14 4.43423 14 4.5C14 4.56577 13.987 4.63089 13.9618 4.69163C13.9366 4.75238 13.8997 4.80755 13.8531 4.854L9.85312 8.854C9.75923 8.94789 9.63189 9.00063 9.49911 9.00063C9.36634 9.00063 9.239 8.94789 9.14511 8.854C9.05123 8.76011 8.99848 8.63278 8.99848 8.5C8.99848 8.36722 9.05123 8.23989 9.14511 8.146L12.2921 5H0.499115C0.366507 5 0.23933 4.94732 0.145562 4.85355C0.0517934 4.75979 -0.00088501 4.63261 -0.00088501 4.5Z" fill="black"/>
</svg>
